<svg width="23" height="23" viewBox="0 0 23 23" fill="none" xmlns="http://www.w3.org/2000/svg">
<path d="M7.66668 12.4583C7.41251 12.4583 7.16875 12.5593 6.98903 12.739C6.80931 12.9188 6.70834 13.1625 6.70834 13.4167V18.2083C6.70834 18.4625 6.80931 18.7063 6.98903 18.886C7.16875 19.0657 7.41251 19.1667 7.66668 19.1667C7.92084 19.1667 8.1646 19.0657 8.34432 18.886C8.52404 18.7063 8.62501 18.4625 8.62501 18.2083V13.4167C8.62501 13.1625 8.52404 12.9188 8.34432 12.739C8.1646 12.5593 7.92084 12.4583 7.66668 12.4583V12.4583ZM11.5 10.5417C11.2458 10.5417 11.0021 10.6426 10.8224 10.8224C10.6426 11.0021 10.5417 11.2458 10.5417 11.5V20.125C10.5417 20.3792 10.6426 20.6229 10.8224 20.8027C11.0021 20.9824 11.2458 21.0833 11.5 21.0833C11.7542 21.0833 11.9979 20.9824 12.1777 20.8027C12.3574 20.6229 12.4583 20.3792 12.4583 20.125V11.5C12.4583 11.2458 12.3574 11.0021 12.1777 10.8224C11.9979 10.6426 11.7542 10.5417 11.5 10.5417ZM17.6525 5.96084C17.067 4.61535 16.0564 3.49896 14.7757 2.78275C13.4949 2.06654 12.0147 1.79002 10.5618 1.99556C9.10885 2.2011 7.7634 2.87736 6.73159 3.92072C5.69978 4.96408 5.03853 6.31697 4.84918 7.77209C4.01295 7.97427 3.26904 8.45187 2.73713 9.12805C2.20522 9.80423 1.91624 10.6397 1.91668 11.5C1.91496 12.0428 2.02856 12.5798 2.24994 13.0755C2.47132 13.5711 2.79544 14.014 3.20084 14.375C3.29414 14.4646 3.40462 14.5344 3.52562 14.5802C3.64662 14.626 3.77563 14.6468 3.90488 14.6413C4.03414 14.6359 4.16095 14.6044 4.27769 14.5486C4.39443 14.4929 4.49867 14.4141 4.58414 14.317C4.6696 14.2198 4.73451 14.1064 4.77497 13.9835C4.81543 13.8607 4.83058 13.7309 4.81953 13.602C4.80848 13.4731 4.77144 13.3478 4.71066 13.2336C4.64987 13.1194 4.56659 13.0187 4.46584 12.9375C4.26488 12.7562 4.10462 12.5343 3.9956 12.2865C3.88658 12.0387 3.83128 11.7707 3.83334 11.5C3.83334 10.9917 4.03528 10.5042 4.39472 10.1447C4.75417 9.78528 5.24168 9.58334 5.75001 9.58334C6.00418 9.58334 6.24793 9.48238 6.42765 9.30266C6.60738 9.12293 6.70834 8.87918 6.70834 8.62501C6.71079 7.49157 7.11495 6.39569 7.84902 5.53207C8.58309 4.66845 9.59953 4.09301 10.7178 3.90797C11.836 3.72294 12.9836 3.9403 13.9568 4.52144C14.9299 5.10257 15.6655 6.00985 16.0329 7.08209C16.0877 7.24677 16.1862 7.39349 16.3178 7.50657C16.4495 7.61966 16.6094 7.69487 16.7804 7.72418C17.4457 7.83893 18.0493 8.18411 18.4856 8.69925C18.9219 9.21439 19.163 9.86662 19.1667 10.5417C19.1813 11.2473 18.9279 11.9322 18.4575 12.4583C18.3045 12.6489 18.2301 12.8906 18.2494 13.1342C18.2687 13.3778 18.3804 13.6048 18.5615 13.7688C18.7427 13.9328 18.9796 14.0214 19.2239 14.0165C19.4682 14.0117 19.7014 13.9136 19.8758 13.7425C20.4037 13.1393 20.7718 12.4133 20.9464 11.631C21.1211 10.8487 21.0967 10.0351 20.8755 9.26464C20.6542 8.4942 20.2433 7.79158 19.6802 7.22108C19.1172 6.65059 18.42 6.23047 17.6525 5.99918V5.96084ZM15.3333 12.4583C15.0792 12.4583 14.8354 12.5593 14.6557 12.739C14.476 12.9188 14.375 13.1625 14.375 13.4167V18.2083C14.375 18.4625 14.476 18.7063 14.6557 18.886C14.8354 19.0657 15.0792 19.1667 15.3333 19.1667C15.5875 19.1667 15.8313 19.0657 16.011 18.886C16.1907 18.7063 16.2917 18.4625 16.2917 18.2083V13.4167C16.2917 13.1625 16.1907 12.9188 16.011 12.739C15.8313 12.5593 15.5875 12.4583 15.3333 12.4583Z" fill="#F1F1F1"/>
</svg>
